<svg viewBox="0 0 1e3 1e3" xmlns="http://www.w3.org/2000/svg" xmlns:xlink="http://www.w3.org/1999/xlink">
  <path fill="currentColor" d="M888 37q-10-9-22.5-9T844 37l-63 63 125 125 63-63q9-9 9-21.5t-9-21.5zM438 700q-4 0-7 3t-6 3l-150 50h-12q-8 0-11-7-2-4-2-12l50-150q0-4 3-8l3-4 432-425 125 125zM63 156q0-25 13-46.5T110 75t46-13h407q13 0 22 9t9 22.5-8.5 22.5-22.5 9H156q-14 0-22.5 8.5T125 156v688q0 14 8.5 22.5T156 875h688q14 0 22.5-8.5T875 844V469q0-14 8.5-23t22.5-9 23 9 9 23v375q0 25-13 46.5T890.5 925 844 938H156q-25 0-46-13t-34-34.5T63 844z" />
</svg>