<svg viewBox="0 0 1e3 1e3" xmlns="http://www.w3.org/2000/svg" xmlns:xlink="http://www.w3.org/1999/xlink">
    <path fill="currentColor" d="M991 515q-11 19-25 39-20 28-42 55-27 33-57 63-35 35-72 63-42 32-85 55-49 26-99 39-55 15-111 15t-111-15q-50-13-99-39-43-23-85-55-37-28-72-63-30-30-57-63-22-27-42-55-14-20-25-39l-9-15 9-15q11-19 25-39 20-28 42-55 27-33 57-63 35-35 71-63 42-32 86-55 49-26 99-39 55-15 111-15t111 15q50 13 99 39 44 23 86 55 36 28 71 63 30 30 57 63 22 27 42 55 14 20 25 39 5 8 9 15zM181 631v0q70 69 144 108 90 48 181 48 95 0 184-48 70-37 141-108 66-66 94-112 3-3 6-9.5t7-9.5q-52-71-107-125-70-70-141-108-90-48-184-48t-183 48q-70 37-142 108-29 25-57 60-20 23-49 65 57 81 106 131zM579 365q36 21 56.5 56.5T656 500t-21 78.5-56.5 56.5-78.5 21-78.5-20.5T365 579t-21-79 21-79 56.5-56.5T500 344t79 21zM311 608.5q30 50.5 80.5 80.5t109 30 109-29 79.5-78q30-51 30-112t-30-112q-29-49-79.5-78T500 281 390.5 310 311 388q-30 51-30 112 0 58 30 108.5z" />
</svg>